<svg viewBox="0 0 100 100" xmlns="http://www.w3.org/2000/svg">
  <defs>
    <linearGradient id="brainGrad" x1="0%" y1="0%" x2="100%" y2="100%">
      <stop offset="0%" style="stop-color:#667eea"/>
      <stop offset="100%" style="stop-color:#764ba2"/>
    </linearGradient>
  </defs>
  
  <!-- Background -->
  <rect width="100" height="100" fill="url(#brainGrad)" rx="20"/>
  
  <!-- Brain -->
  <path d="M50 20 C30 20, 20 30, 20 45 C20 50, 22 55, 25 58 C23 60, 22 63, 22 66 C22 72, 27 77, 33 77 C35 77, 37 76, 39 75 C42 80, 46 83, 50 83 C54 83, 58 80, 61 75 C63 76, 65 77, 67 77 C73 77, 78 72, 78 66 C78 63, 77 60, 75 58 C78 55, 80 50, 80 45 C80 30, 70 20, 50 20 Z" 
        fill="#fff" stroke="#f0f0f0" stroke-width="1.5"/>
  
  <!-- Nodes -->
  <circle cx="35" cy="40" r="3" fill="#667eea" opacity="0.8"/>
  <circle cx="50" cy="35" r="3" fill="#667eea" opacity="0.8"/>
  <circle cx="65" cy="40" r="3" fill="#667eea" opacity="0.8"/>
  <circle cx="40" cy="55" r="2.5" fill="#764ba2" opacity="0.7"/>
  <circle cx="60" cy="55" r="2.5" fill="#764ba2" opacity="0.7"/>
  
  <!-- Connections -->
  <line x1="35" y1="40" x2="50" y2="35" stroke="#667eea" stroke-width="1.5" opacity="0.4"/>
  <line x1="50" y1="35" x2="65" y2="40" stroke="#667eea" stroke-width="1.5" opacity="0.4"/>
  <line x1="35" y1="40" x2="40" y2="55" stroke="#764ba2" stroke-width="1.5" opacity="0.4"/>
  <line x1="65" y1="40" x2="60" y2="55" stroke="#764ba2" stroke-width="1.5" opacity="0.4"/>
</svg>
